<svg width="22" height="21" viewBox="0 0 22 21" fill="none" xmlns="http://www.w3.org/2000/svg">
<path d="M5.70588 8.99726V18.409C5.70588 18.721 5.58193 19.0203 5.3613 19.2409C5.14067 19.4615 4.84143 19.5855 4.52941 19.5855H2.17647C1.86445 19.5855 1.56521 19.4615 1.34458 19.2409C1.12395 19.0203 1 18.721 1 18.409V10.1737C1 9.86171 1.12395 9.56247 1.34458 9.34184C1.56521 9.12121 1.86445 8.99726 2.17647 8.99726H5.70588ZM5.70588 8.99726C6.95396 8.99726 8.15092 8.50146 9.03344 7.61894C9.91597 6.73641 10.4118 5.53945 10.4118 4.29137V3.1149C10.4118 2.49087 10.6597 1.89239 11.1009 1.45112C11.5422 1.00986 12.1407 0.761963 12.7647 0.761963C13.3887 0.761963 13.9872 1.00986 14.4285 1.45112C14.8697 1.89239 15.1176 2.49087 15.1176 3.1149V8.99726H18.6471C19.2711 8.99726 19.8696 9.24516 20.3108 9.68642C20.7521 10.1277 21 10.7262 21 11.3502L19.8235 17.2326C19.6543 17.9543 19.3334 18.574 18.909 18.9984C18.4846 19.4228 17.9798 19.6288 17.4706 19.5855H9.23529C8.29924 19.5855 7.40152 19.2136 6.73962 18.5518C6.07773 17.8899 5.70588 16.9921 5.70588 16.0561" stroke="black" stroke-linecap="round" stroke-linejoin="round"/>
</svg>
